<svg width="115" height="34" viewBox="0 0 115 34" fill="none" xmlns="http://www.w3.org/2000/svg">
<g id="Company logo" clip-path="url(#clip0_1_84)">
<g id="Vector">
<path d="M33.8109 11.1575H38.6138C41.2743 11.1575 42.6555 12.2484 42.6555 14.2967V14.3987C42.6934 14.9989 42.5146 15.5928 42.1517 16.0724C41.7888 16.552 41.2658 16.8854 40.6778 17.012C41.3819 17.074 42.0332 17.4112 42.4901 17.9505C42.9471 18.4897 43.1729 19.1875 43.1185 19.8922V19.9629C43.1185 22.1995 41.651 23.3767 38.8336 23.3767H33.8109V11.1575ZM38.1665 16.1723C39.5006 16.1723 40.0264 15.6936 40.0264 14.6027V14.5321C40.0264 13.5119 39.4457 13.0489 38.1508 13.0489H36.5106V16.188L38.1665 16.1723ZM38.4019 21.4539C39.7675 21.4539 40.3874 20.834 40.3874 19.7274V19.6568C40.3874 18.5267 39.7675 17.9538 38.2685 17.9538H36.5106V21.4618L38.4019 21.4539Z" fill="#8C9498"/>
<path d="M43.8406 20.8889C43.8406 18.8014 45.7477 18.0166 48.4866 18.0166H49.4911V17.6634C49.4911 16.604 49.1693 16.0232 48.0392 16.0232C47.8563 16.0015 47.6709 16.0175 47.4944 16.0701C47.3178 16.1228 47.1539 16.211 47.0128 16.3293C46.8716 16.4477 46.7562 16.5937 46.6736 16.7584C46.591 16.923 46.543 17.1028 46.5325 17.2867H44.1781C44.3351 15.1678 46.0066 14.2261 48.1962 14.2261C50.3858 14.2261 51.9318 15.1129 51.9318 17.5379V23.361H49.5225V22.2858C49.2201 22.7119 48.8125 23.0522 48.3393 23.2737C47.8662 23.4951 47.3437 23.5901 46.8228 23.5494C45.2062 23.5494 43.8406 22.7646 43.8406 20.8889ZM49.4911 20.2375V19.4528H48.5337C47.0975 19.4528 46.2656 19.7667 46.2656 20.7163C46.2656 21.3676 46.658 21.7993 47.5605 21.7993C48.6514 21.8307 49.4911 21.2264 49.4911 20.2375Z" fill="#8C9498"/>
<path d="M52.9754 20.5593H55.2827C55.3847 21.3441 55.7771 21.8307 56.8523 21.8307C57.8097 21.8307 58.257 21.4697 58.257 20.8497C58.257 20.2297 57.7234 19.9786 56.4442 19.7981C54.0898 19.4371 53.1481 18.7543 53.1481 17.0121C53.1481 15.2698 54.8589 14.2261 56.6796 14.2261C58.6651 14.2261 60.1484 14.9481 60.3681 16.9964H58.1001C57.9667 16.2587 57.5507 15.9212 56.7032 15.9212C55.8556 15.9212 55.4396 16.2979 55.4396 16.8394C55.4396 17.3809 55.8634 17.6242 57.1583 17.8126C59.395 18.1343 60.6271 18.6994 60.6271 20.6142C60.6271 22.5291 59.2302 23.5494 56.868 23.5494C54.5058 23.5494 53.0617 22.4899 52.9754 20.5593Z" fill="#8C9498"/>
<path d="M61.2628 19.0054V18.872C61.233 18.2587 61.331 17.6459 61.5505 17.0724C61.7699 16.4989 62.1061 15.9772 62.5377 15.5405C62.9693 15.1037 63.4869 14.7614 64.0578 14.5351C64.6286 14.3088 65.2402 14.2036 65.8538 14.226C68.1611 14.226 70.2094 15.5759 70.2094 18.77V19.4527H63.7977C63.8605 20.936 64.6688 21.8071 66.0108 21.8071C67.1566 21.8071 67.7216 21.3127 67.8786 20.5593H70.2329C69.9426 22.4899 68.4044 23.565 65.9637 23.565C63.2248 23.5493 61.2628 21.862 61.2628 19.0054ZM67.8001 17.9302C67.7216 16.5804 67.031 15.9683 65.8538 15.9683C65.3239 15.9658 64.8135 16.1688 64.4301 16.5346C64.0467 16.9005 63.82 17.4007 63.7977 17.9302H67.8001Z" fill="#8C9498"/>
<path d="M70.8608 19.0053V18.8719C70.8309 18.2572 70.9293 17.6431 71.1497 17.0685C71.3701 16.4939 71.7077 15.9714 72.141 15.5344C72.5743 15.0974 73.0938 14.7554 73.6665 14.5301C74.2393 14.3049 74.8526 14.2013 75.4675 14.226C77.5393 14.226 79.4464 15.1285 79.674 17.6947H77.3196C77.3039 17.4745 77.2442 17.2596 77.1438 17.0629C77.0435 16.8662 76.9047 16.6916 76.7356 16.5496C76.5665 16.4076 76.3706 16.301 76.1595 16.2362C75.9484 16.1713 75.7264 16.1496 75.5067 16.1722C74.2275 16.1722 73.3721 17.1297 73.3721 18.8405V18.9739C73.3721 20.7711 74.1569 21.6893 75.5617 21.6893C75.8007 21.7031 76.04 21.6691 76.2658 21.5895C76.4916 21.5098 76.6992 21.386 76.8767 21.2254C77.0542 21.0647 77.1979 20.8703 77.2996 20.6535C77.4012 20.4368 77.4587 20.202 77.4687 19.9628H79.7054C79.5719 22.0817 78.0338 23.5493 75.4361 23.5493C72.8385 23.5493 70.8608 21.9248 70.8608 19.0053Z" fill="#8C9498"/>
<path d="M80.2784 20.8889C80.2784 18.8014 82.1854 18.0166 84.9165 18.0166H85.9288V17.6634C85.9288 16.604 85.5992 16.0232 84.477 16.0232C84.2929 15.9992 84.1057 16.0134 83.9273 16.065C83.7489 16.1165 83.5831 16.2044 83.4402 16.323C83.2973 16.4416 83.1804 16.5884 83.0969 16.7542C83.0133 16.92 82.9648 17.1013 82.9545 17.2867H80.6001C80.7571 15.1678 82.4287 14.226 84.6104 14.226C86.7921 14.226 88.3539 15.1129 88.3539 17.5379V23.361H85.9445V22.2858C85.6422 22.7119 85.2345 23.0522 84.7614 23.2737C84.2882 23.4951 83.7657 23.5901 83.2449 23.5493C81.6753 23.5493 80.2784 22.7645 80.2784 20.8889ZM85.9288 20.2375V19.4527H84.9871C83.5509 19.4527 82.7112 19.7667 82.7112 20.7162C82.7112 21.3676 83.1115 21.7993 84.014 21.7993C85.1205 21.8306 85.9602 21.2264 85.9602 20.2375H85.9288Z" fill="#8C9498"/>
<path d="M90.0959 14.3987H92.568V15.7642C92.8375 15.279 93.2342 14.8765 93.7154 14.6C94.1966 14.3234 94.7441 14.1833 95.299 14.1946C95.8286 14.1523 96.3577 14.2822 96.8075 14.565C97.2572 14.8479 97.6035 15.2685 97.7947 15.7642C98.1243 15.2719 98.5722 14.8703 99.0973 14.596C99.6225 14.3218 100.208 14.1838 100.8 14.1946C102.456 14.1946 103.736 15.2384 103.736 17.6084V23.3296H101.279V17.9145C101.279 16.7687 100.769 16.2586 99.8744 16.2586C99.6364 16.2483 99.3989 16.2894 99.1783 16.3792C98.9576 16.4689 98.7589 16.6053 98.5958 16.7789C98.4326 16.9524 98.3089 17.1592 98.2329 17.385C98.1569 17.6108 98.1306 17.8503 98.1557 18.0872V23.3609H95.6914V17.9145C95.6914 16.7687 95.1656 16.2586 94.2945 16.2586C94.0559 16.2471 93.8176 16.2873 93.596 16.3766C93.3743 16.4659 93.1747 16.602 93.0106 16.7758C92.8466 16.9495 92.7221 17.1566 92.6457 17.383C92.5693 17.6094 92.5428 17.8496 92.568 18.0872V23.3609H90.0959V14.3987Z" fill="#8C9498"/>
<path d="M105.431 14.3987H107.911V15.8034C108.206 15.3121 108.624 14.9057 109.123 14.6237C109.622 14.3418 110.186 14.1939 110.76 14.1946C112.949 14.1946 114.683 15.8191 114.683 18.7699V18.9112C114.683 21.862 113.012 23.5179 110.76 23.5179C110.187 23.5414 109.618 23.4076 109.116 23.1309C108.614 22.8542 108.197 22.4452 107.911 21.9483V26.4059H105.431V14.3987ZM112.141 18.7935C112.141 16.9806 111.254 16.0938 110.006 16.0938C108.758 16.0938 107.824 16.9963 107.824 18.7935V18.9269C107.824 20.7162 108.68 21.5873 110.03 21.5873C111.38 21.5873 112.141 20.677 112.141 18.9583V18.7935Z" fill="#8C9498"/>
<path fill-rule="evenodd" clip-rule="evenodd" d="M15.4626 6.89219C8.49885 6.89219 4.86716 12.7906 2.83377 18.5558C2.58796 19.2527 1.82374 19.6184 1.12682 19.3726C0.628356 19.1968 0.299333 18.7558 0.242311 18.2639C0.219609 18.068 0.240019 17.8641 0.310012 17.6657C2.37322 11.816 6.58941 4.21606 15.4626 4.21606C20.1007 4.21606 23.4204 7.28441 25.5674 10.9706C27.7201 14.6666 28.8678 19.2429 29.1265 22.9379C29.1451 23.2035 29.084 23.4686 28.9511 23.6993C27.7077 25.8577 25.6391 27.2643 23.2812 28.1258C20.9291 28.9852 18.2045 29.3362 15.4734 29.3371C13.1531 29.3733 10.8522 28.909 8.72744 27.9756C6.59935 27.0408 4.69816 25.6576 3.15382 23.9204C2.82528 23.5508 2.72734 23.0302 2.89911 22.5665L2.90012 22.5638L2.90204 22.5587L2.90858 22.5412L2.93227 22.4787C2.9527 22.4253 2.98231 22.3486 3.02047 22.252C3.09673 22.059 3.20741 21.7857 3.34735 21.4587C3.62599 20.8076 4.0263 19.93 4.50718 19.044C4.98173 18.1696 5.56528 17.2297 6.22151 16.4891C6.81975 15.8139 7.74963 14.9915 8.93983 14.9834L8.9489 14.9833C9.78993 14.9833 10.4808 15.3684 10.9781 15.7386C11.4793 16.1117 11.9345 16.5859 12.2993 16.972C12.3412 17.0163 12.3819 17.0594 12.4214 17.1014C12.7612 17.4616 13.021 17.7371 13.2678 17.9433C13.2956 17.9665 13.3211 17.987 13.3443 18.005C13.4246 17.923 13.5204 17.8154 13.6306 17.6787C14.0228 17.1926 14.4633 16.5077 14.8896 15.7745C15.3102 15.0509 15.6931 14.3221 15.9722 13.7708C16.1113 13.496 16.2235 13.2676 16.3006 13.1086C16.3391 13.0292 16.3688 12.9673 16.3885 12.9257L16.4106 12.8792L16.4159 12.8681L16.417 12.8657C16.7307 12.1967 17.5275 11.9082 18.1966 12.2218C18.8657 12.5355 19.1539 13.3322 18.8402 14.0013L18.8373 14.0075L18.8304 14.0222L18.8047 14.0764C18.7824 14.1232 18.75 14.1908 18.7086 14.2761C18.6259 14.4468 18.5068 14.6892 18.3598 14.9796C18.0667 15.5583 17.6585 16.3363 17.2031 17.1195C16.7534 17.8931 16.233 18.715 15.7136 19.3589C15.456 19.6782 15.164 19.9976 14.8482 20.2488C14.5691 20.4708 14.0768 20.7986 13.4457 20.7986C12.6112 20.7986 11.9537 20.3327 11.5518 19.9968C11.1731 19.6803 10.7947 19.2781 10.4768 18.9401C10.4349 18.8955 10.394 18.8521 10.3543 18.81C9.97747 18.4113 9.66947 18.1007 9.38006 17.8852C9.12641 17.6964 8.9969 17.6654 8.95971 17.6604C8.95971 17.6604 8.95704 17.6614 8.9547 17.6622C8.91379 17.6767 8.668 17.7633 8.22445 18.2639C7.76456 18.7829 7.29404 19.5194 6.85922 20.3206C6.43072 21.1101 6.06636 21.9071 5.80767 22.5116C5.77433 22.5895 5.74285 22.6639 5.71331 22.7346C6.89094 23.908 8.27738 24.855 9.80374 25.5255C11.5791 26.3054 13.502 26.6928 15.4409 26.6612L15.4626 26.661C17.9939 26.661 20.3899 26.333 22.3628 25.6122C24.1779 24.949 25.5624 23.9825 26.4231 22.6994C26.1314 19.4111 25.084 15.4578 23.255 12.3175C21.3407 9.03092 18.7431 6.89219 15.4626 6.89219ZM13.1243 18.1951C13.1243 18.1951 13.1302 18.1907 13.1414 18.1849C13.1299 18.1928 13.1243 18.1951 13.1243 18.1951Z" fill="#8C9498"/>
</g>
</g>
<defs>
<clipPath id="clip0_1_84">
<rect width="114.552" height="33.3241" fill="white" transform="translate(0.233459)"/>
</clipPath>
</defs>
</svg>
