<svg width="100" height="34" viewBox="0 0 100 34" fill="none" xmlns="http://www.w3.org/2000/svg">
<g id="Company logo" clip-path="url(#clip0_1_86)">
<g id="Vector">
<path fill-rule="evenodd" clip-rule="evenodd" d="M2.40836 24.8903C0.150716 22.6518 0.150752 19.0225 2.40843 16.784L8.54037 10.7042C10.4489 8.81184 13.3599 8.51918 15.5784 9.82618C16.2647 10.2304 16.2587 11.1578 15.6943 11.7175C15.1299 12.2771 14.2085 12.2289 13.4424 12.0067C12.4613 11.7222 11.3581 11.9636 10.5844 12.7307L4.45239 18.8106C3.32355 19.9298 3.32354 21.7445 4.45236 22.8637C5.58121 23.983 7.41146 23.983 8.5403 22.8637L20.8041 10.7042C23.0618 8.46573 26.7222 8.46572 28.9799 10.7042L35.1119 16.784C37.3696 19.0224 37.3696 22.6518 35.1119 24.8903C32.8543 27.1288 29.1938 27.1288 26.9361 24.8903L24.8922 22.8637L22.3372 25.397C20.4286 27.2893 17.5177 27.5819 15.299 26.2749C14.6128 25.8707 14.6188 24.9433 15.1833 24.3837C15.7477 23.824 16.669 23.8722 17.4352 24.0943C18.4162 24.3789 19.5195 24.1375 20.2932 23.3704L22.9212 20.7648C24.0097 19.6855 25.7745 19.6855 26.8631 20.7648L28.9801 22.8637C30.1089 23.983 31.9391 23.983 33.0679 22.8637C34.1968 21.7445 34.1968 19.9298 33.0679 18.8106L26.9359 12.7308C25.8071 11.6116 23.9769 11.6116 22.8481 12.7308L10.5843 24.8904C8.32655 27.1289 4.66605 27.1289 2.40836 24.8903Z" fill="#1D2D35" fill-opacity="0.5"/>
<path d="M59.8967 12.2741C58.4761 12.2741 57.3998 12.7828 56.6895 13.8002C56.0654 12.7828 55.0752 12.2741 53.7622 12.2741C52.4062 12.2741 51.4161 12.7404 50.7703 13.6942V12.5708H47.9937V23.1687H50.7703V17.2126C50.7703 15.6654 51.5667 14.8176 52.7936 14.8176C53.9344 14.8176 54.6017 15.5594 54.6017 16.8312V23.1687H57.3783V17.2126C57.3783 15.6654 58.1102 14.8176 59.3801 14.8176C60.5209 14.8176 61.1881 15.5594 61.1881 16.8312V23.1687H63.9648V16.6404C63.9648 13.9909 62.372 12.2741 59.8967 12.2741Z" fill="#1D2D35" fill-opacity="0.5"/>
<path d="M74.287 13.8214C73.4476 12.7828 72.2853 12.2741 70.7786 12.2741C69.3364 12.2741 68.1096 12.8252 67.0764 13.9061C66.0648 14.9871 65.5481 16.3013 65.5481 17.8698C65.5481 19.4382 66.0648 20.7736 67.0764 21.8546C68.1096 22.9355 69.3364 23.4654 70.7786 23.4654C72.2853 23.4654 73.4476 22.9567 74.287 21.9181V23.1687H77.0639V12.5708H74.287V13.8214ZM69.1643 20.0317C68.6046 19.4594 68.3248 18.7387 68.3248 17.8698C68.3248 17.0007 68.6046 16.2801 69.1643 15.729C69.7239 15.1567 70.4342 14.8811 71.2951 14.8811C72.1561 14.8811 72.8664 15.1567 73.4261 15.729C74.0072 16.2801 74.287 17.0007 74.287 17.8698C74.287 18.7387 74.0072 19.4594 73.4261 20.0317C72.8664 20.5828 72.1561 20.8583 71.2951 20.8583C70.4342 20.8583 69.7239 20.5828 69.1643 20.0317Z" fill="#1D2D35" fill-opacity="0.5"/>
<path d="M87.309 14.3936V12.5708H79.2373V15.1355H83.5635L79.0215 21.3458V23.1686H87.5241V20.6039H82.7452L87.309 14.3936Z" fill="#1D2D35" fill-opacity="0.5"/>
<path d="M99.1337 18.9931C99.1983 18.5904 99.2412 18.2301 99.2412 17.8698C99.2412 16.2801 98.7253 14.9659 97.6919 13.8849C96.6803 12.804 95.3671 12.2741 93.796 12.2741C92.1383 12.2741 90.7612 12.804 89.706 13.8849C88.6515 14.9447 88.113 16.2801 88.113 17.8698C88.113 19.4806 88.6515 20.816 89.7278 21.8757C90.8041 22.9355 92.2248 23.4654 94.0111 23.4654C96.0771 23.4654 97.649 22.7024 98.7035 21.1975L96.4652 19.9257C95.9267 20.6252 95.1091 20.9855 94.0539 20.9855C92.397 20.9855 91.3855 20.3285 91.0192 18.9931H99.1337ZM90.9763 16.8735C91.299 15.517 92.3106 14.7328 93.796 14.7328C95.0655 14.7328 96.1418 15.4322 96.4652 16.8735H90.9763Z" fill="#1D2D35" fill-opacity="0.5"/>
</g>
</g>
<defs>
<clipPath id="clip0_1_86">
<rect width="98.5839" height="33.3241" fill="white" transform="translate(0.715149)"/>
</clipPath>
</defs>
</svg>
