<svg width="33" height="34" viewBox="0 0 33 34" fill="none" xmlns="http://www.w3.org/2000/svg">
<mask id="mask0_1_48" style="mask-type:alpha" maskUnits="userSpaceOnUse" x="0" y="0" width="33" height="34">
<path d="M0 6.5C0 3.67157 0 2.25736 0.87868 1.37868C1.75736 0.5 3.17157 0.5 6 0.5H31.2321C32.2085 0.5 33 1.2915 33 2.26786C33 19.5169 19.0169 33.5 1.76786 33.5C0.791496 33.5 0 32.7085 0 31.7321V6.5Z" fill="#99EA48"/>
</mask>
<g mask="url(#mask0_1_48)">
<path d="M0 6.5C0 3.67157 0 2.25736 0.87868 1.37868C1.75736 0.5 3.17157 0.5 6 0.5H31.2321C32.2085 0.5 33 1.2915 33 2.26786C33 19.5169 19.0169 33.5 1.76786 33.5C0.791496 33.5 0 32.7085 0 31.7321V6.5Z" fill="#99EA48"/>
<path d="M11 18C11 15.1716 11 13.7574 11.8787 12.8787C12.7574 12 14.1716 12 17 12H24.25C24.6642 12 25 12.3358 25 12.75C25 20.0678 19.0678 26 11.75 26C11.3358 26 11 25.6642 11 25.25V18Z" fill="#191F33"/>
</g>
</svg>
